<svg id="Layer_1" data-name="Layer 1" xmlns="http://www.w3.org/2000/svg" width="135.9" height="45.71" viewBox="0 0 135.9 45.71"><polygon points="129.75 42.31 129.75 38.57 131.95 38.57 131.95 39.18 130.52 39.18 130.52 40.1 131.88 40.1 131.88 40.68 130.52 40.68 130.52 41.69 131.95 41.69 131.95 42.31 129.75 42.31" style="fill:#424242"/><path d="M136.13,44.52a4.44,4.44,0,0,1-.77-.08l0-.7a2.41,2.41,0,0,0,.82.14c.35,0,.69-.16.69-.53,0-.66-1.64-.31-1.64-1.53,0-.7.54-1.17,1.53-1.17a4.17,4.17,0,0,1,.71.07l0,.65a2.77,2.77,0,0,0-.71-.1c-.47,0-.68.19-.68.47,0,.63,1.67.36,1.67,1.53,0,.76-.66,1.25-1.62,1.25" transform="translate(-2.05 -2.14)" style="fill:#424242"/><path d="M135.33,31.21a4.78,4.78,0,0,1-1.25-.17l0-1.23a3.52,3.52,0,0,0,1.34.25c.58,0,1.12-.28,1.12-.93,0-1.17-2.67-.56-2.67-2.72,0-1.25.89-2.09,2.49-2.09a7.48,7.48,0,0,1,1.16.12l-.06,1.18a3.7,3.7,0,0,0-1.15-.2c-.77,0-1.11.34-1.11.84,0,1.13,2.71.63,2.71,2.72,0,1.35-1.07,2.23-2.62,2.23" transform="translate(-2.05 -2.14)" style="fill:#424242"/><path d="M24.91,2.14A22.86,22.86,0,1,0,47.77,25,22.86,22.86,0,0,0,24.91,2.14M33.63,46H16.2L3.87,33.72V16.28L16.2,4H33.63L46,16.28V33.72Z" transform="translate(-2.05 -2.14)" style="fill:#424242"/><path d="M24.91,6.25A18.75,18.75,0,1,0,43.66,25,18.74,18.74,0,0,0,24.91,6.25m7.15,36H17.76L7.65,32.15V17.85L17.76,7.74h14.3L42.17,17.85v14.3Z" transform="translate(-2.05 -2.14)" style="fill:#424242"/><path d="M24.91,11.61A13.4,13.4,0,1,0,38.31,25a13.4,13.4,0,0,0-13.4-13.39M30,37.33H19.8L12.58,30.1V19.89l7.22-7.22H30l7.22,7.22V30.1Z" transform="translate(-2.05 -2.14)" style="fill:#ffc216"/><path d="M24.91,16.27A8.73,8.73,0,1,0,33.65,25a8.74,8.74,0,0,0-8.74-8.73M28.24,33H21.58l-4.7-4.71V21.67l4.7-4.7h6.66L33,21.67v6.66Z" transform="translate(-2.05 -2.14)" style="fill:#ffc216"/><path d="M72.33,8a9.38,9.38,0,0,0-3.42-.67,4.47,4.47,0,0,0-4.66,4.85c0,3,1.69,4.7,4.45,4.7a6.37,6.37,0,0,0,2-.31V11.86h2.07v6a12.16,12.16,0,0,1-4.3.78c-4,0-6.43-2.38-6.43-6.33s2.67-6.87,7.06-6.87A11.76,11.76,0,0,1,72.66,6Z" transform="translate(-2.05 -2.14)" style="fill:#424242"/><path d="M87.35,18.48l-1-2.83h-5.2l-1,2.83H78.09l4.6-12.83H85l4.65,12.83Zm-3-8.52h0a12.89,12.89,0,0,1-.57-2h0a14.07,14.07,0,0,1-.59,2l-1.44,4h4.11Z" transform="translate(-2.05 -2.14)" style="fill:#424242"/><path d="M104.64,8a9.42,9.42,0,0,0-3.42-.67,4.47,4.47,0,0,0-4.66,4.85c0,3,1.69,4.7,4.45,4.7a6.26,6.26,0,0,0,2-.31V11.86h2.08v6a12.2,12.2,0,0,1-4.3.78c-4,0-6.43-2.38-6.43-6.33S97,5.47,101.39,5.47A11.69,11.69,0,0,1,105,6Z" transform="translate(-2.05 -2.14)" style="fill:#424242"/><path d="M119.66,18.48l-1-2.83h-5.18l-1,2.83H110.4L115,5.65h2.3L122,18.48Zm-3-8.52h0a12.89,12.89,0,0,1-.57-2h0a14.07,14.07,0,0,1-.59,2L114,14h4.1Z" transform="translate(-2.05 -2.14)" style="fill:#424242"/><path d="M135.09,18.48l-4.39-7.3a28.82,28.82,0,0,1-1.44-2.7c.08,1.26.12,3.86.12,5.69v4.31h-2V5.65h2.72l4.25,7c.57,1,1.08,2,1.55,2.92-.07-1.47-.12-4.23-.12-6.11V5.65h2V18.48Z" transform="translate(-2.05 -2.14)" style="fill:#424242"/><path d="M63.86,44.5A1.67,1.67,0,0,1,62,42.66a1.88,1.88,0,0,1,2-2,3.19,3.19,0,0,1,.8.1l-.07.69a2.78,2.78,0,0,0-.79-.13,1.12,1.12,0,0,0-1.13,1.27A1.08,1.08,0,0,0,64,43.82a1.76,1.76,0,0,0,.78-.17l.07.69a3,3,0,0,1-1,.16" transform="translate(-2.05 -2.14)" style="fill:#424242"/><path d="M68.12,44.45l-1.07-1.53h0v1.53h-.77V40.72c.27,0,.76,0,1.22,0,.89,0,1.41.35,1.41,1a1.07,1.07,0,0,1-1,1.07l.3.4.93,1.25Zm-.77-3.16h0a1.72,1.72,0,0,0-.34,0v1.07l.36,0a.61.61,0,0,0,.68-.59C68.05,41.47,67.78,41.29,67.35,41.29Z" transform="translate(-2.05 -2.14)" style="fill:#424242"/><polygon points="68.33 42.31 68.33 38.57 70.53 38.57 70.53 39.18 69.11 39.18 69.11 40.1 70.47 40.1 70.47 40.68 69.11 40.68 69.11 41.69 70.53 41.69 70.53 42.31 68.33 42.31" style="fill:#424242"/><path d="M76.5,44.45l-.27-.72H74.67l-.27.72h-.77L75,40.72H76l1.41,3.73Zm-.85-2.33h0c-.07-.2-.14-.42-.19-.59h0a4.89,4.89,0,0,1-.19.58l-.4,1H76Z" transform="translate(-2.05 -2.14)" style="fill:#424242"/><polygon points="77.82 39.23 77.82 42.31 77.05 42.31 77.05 39.23 76.02 39.23 76.02 38.57 78.86 38.57 78.86 39.23 77.82 39.23" style="fill:#424242"/><rect x="80.06" y="38.57" width="0.78" height="3.74" style="fill:#424242"/><path d="M87,44.45l-1.29-2a7.08,7.08,0,0,1-.38-.71h0c0,.2,0,.43,0,.78v2h-.75V40.72h1l1.26,2a5.73,5.73,0,0,1,.41.73h0c0-.24,0-.59,0-1.08V40.72H88v3.73Z" transform="translate(-2.05 -2.14)" style="fill:#424242"/><path d="M91.29,44.51a1.75,1.75,0,0,1-1.93-1.85,1.94,1.94,0,0,1,2.08-2,3.86,3.86,0,0,1,1.17.18l-.13.66a2.77,2.77,0,0,0-1-.19,1.19,1.19,0,0,0-1.26,1.28,1.11,1.11,0,0,0,1.18,1.23,2.38,2.38,0,0,0,.55-.06V42.49h.77v1.77a3.92,3.92,0,0,1-1.4.25" transform="translate(-2.05 -2.14)" style="fill:#424242"/><polygon points="94.28 42.31 94.28 38.57 96.47 38.57 96.47 39.18 95.05 39.18 95.05 40.1 96.41 40.1 96.41 40.68 95.05 40.68 95.05 41.69 96.47 41.69 96.47 42.31 94.28 42.31" style="fill:#424242"/><polygon points="100.36 42.31 99.44 40.98 98.52 42.31 97.58 42.31 98.98 40.46 97.63 38.57 98.6 38.57 99.5 39.87 100.41 38.57 101.3 38.57 99.98 40.42 101.39 42.31 100.36 42.31" style="fill:#424242"/><path d="M105.8,43.24h-.33v1.22h-.78V40.72c.33,0,.79,0,1.23,0,1,0,1.48.46,1.48,1.21s-.64,1.34-1.6,1.34m0-1.92h-.38v1.26a1.84,1.84,0,0,0,.33,0c.49,0,.78-.23.78-.67S106.33,41.32,105.85,41.32Z" transform="translate(-2.05 -2.14)" style="fill:#424242"/><polygon points="106.65 42.31 106.65 38.57 108.86 38.57 108.86 39.18 107.44 39.18 107.44 40.1 108.79 40.1 108.79 40.68 107.44 40.68 107.44 41.69 108.86 41.69 108.86 42.31 106.65 42.31" style="fill:#424242"/><path d="M114.32,44.45l-1.08-1.53h0v1.53h-.78V40.72c.28,0,.77,0,1.23,0,.89,0,1.4.35,1.4,1a1.07,1.07,0,0,1-1,1.07l.3.4.93,1.25Zm-.78-3.16h0a1.67,1.67,0,0,0-.33,0v1.07l.36,0a.61.61,0,0,0,.68-.59C114.25,41.47,114,41.29,113.54,41.29Z" transform="translate(-2.05 -2.14)" style="fill:#424242"/><rect x="114.53" y="38.57" width="0.77" height="3.74" style="fill:#424242"/><polygon points="116.99 42.31 116.99 38.57 119.19 38.57 119.19 39.18 117.77 39.18 117.77 40.1 119.12 40.1 119.12 40.68 117.77 40.68 117.77 41.69 119.19 41.69 119.19 42.31 116.99 42.31" style="fill:#424242"/><path d="M125.17,44.45l-1.3-2c-.13-.23-.27-.49-.37-.71h0c0,.2,0,.43,0,.78v2h-.76V40.72h1l1.26,2a7.28,7.28,0,0,1,.41.73h0c0-.24,0-.59,0-1.08V40.72h.76v3.73Z" transform="translate(-2.05 -2.14)" style="fill:#424242"/><path d="M129.43,44.5a1.66,1.66,0,0,1-1.84-1.84,1.87,1.87,0,0,1,2-2,3.19,3.19,0,0,1,.8.1l-.07.69a2.72,2.72,0,0,0-.79-.13,1.12,1.12,0,0,0-1.13,1.27,1.08,1.08,0,0,0,1.17,1.23,1.83,1.83,0,0,0,.79-.17l.06.69a2.87,2.87,0,0,1-1,.16" transform="translate(-2.05 -2.14)" style="fill:#424242"/><rect x="59.97" y="34.73" width="75.92" height="0.34" style="fill:#424242"/><path d="M63.92,31.13c-.78,0-1.37,0-1.9,0V24.44l2.21,0c2,0,3.28.94,3.28,3.25S66,31.13,63.92,31.13m.17-5.6h0l-.81,0v4.39c.18,0,.5,0,.76,0a2,2,0,0,0,2.12-2.23C66.16,26.27,65.47,25.53,64.09,25.53Z" transform="translate(-2.05 -2.14)" style="fill:#424242"/><polygon points="69.09 28.95 69.09 22.3 72.66 22.3 72.66 23.38 70.36 23.38 70.36 25.01 72.56 25.01 72.56 26.06 70.36 26.06 70.36 27.84 72.66 27.84 72.66 28.95 69.09 28.95" style="fill:#424242"/><path d="M81.52,31.09H80.05l-2.33-6.65h1.4l1.17,3.43a17.78,17.78,0,0,1,.51,1.73h0c.15-.59.32-1.2.5-1.71l1.22-3.45h1.3Z" transform="translate(-2.05 -2.14)" style="fill:#424242"/><polygon points="85.05 28.95 85.05 22.3 88.62 22.3 88.62 23.38 86.3 23.38 86.3 25.01 88.51 25.01 88.51 26.06 86.3 26.06 86.3 27.84 88.62 27.84 88.62 28.95 85.05 28.95" style="fill:#424242"/><polygon points="92.56 28.95 92.56 22.3 93.81 22.3 93.81 27.74 95.91 27.74 95.91 28.95 92.56 28.95" style="fill:#424242"/><path d="M103.82,31.2c-2,0-3-1.38-3-3.37A3.23,3.23,0,0,1,104,24.32c1.76,0,3,1.13,3,3.38a3.2,3.2,0,0,1-3.17,3.5m.11-5.67h0c-.92,0-1.73.76-1.73,2.19,0,1.27.5,2.27,1.68,2.27,1,0,1.77-.72,1.77-2.21S105,25.53,103.93,25.53Z" transform="translate(-2.05 -2.14)" style="fill:#424242"/><path d="M112.46,28.93l-.54,0v2.19h-1.26V24.44c.52,0,1.27,0,2,0,1.54,0,2.42.81,2.42,2.15a2.35,2.35,0,0,1-2.6,2.38m.08-3.42h0a5.73,5.73,0,0,0-.62,0v2.25a3,3,0,0,0,.54,0,1.11,1.11,0,0,0,1.26-1.19A1.07,1.07,0,0,0,112.54,25.51Z" transform="translate(-2.05 -2.14)" style="fill:#424242"/><polygon points="116.59 28.95 116.59 22.3 120.16 22.3 120.16 23.38 117.85 23.38 117.85 25.01 120.06 25.01 120.06 26.06 117.85 26.06 117.85 27.84 120.16 27.84 120.16 28.95 116.59 28.95" style="fill:#424242"/><path d="M129.21,31.09l-1.74-2.73h0v2.73h-1.27V24.44c.45,0,1.24,0,2,0,1.45,0,2.29.62,2.29,1.84a1.84,1.84,0,0,1-1.66,1.91c.14.18.31.43.5.71l1.5,2.23ZM128,25.46h0a2.86,2.86,0,0,0-.53,0V27.4a5.22,5.22,0,0,0,.58,0,1,1,0,0,0,1.09-1.05C129.09,25.78,128.66,25.46,128,25.46Z" transform="translate(-2.05 -2.14)" style="fill:#424242"/></svg>