<svg xmlns="http://www.w3.org/2000/svg" viewBox="0 0 1080 1080"><defs><style>      .cls-1 {        fill: #fff;      }      .cls-2, .cls-3 {        fill: #1c2d56;      }      .cls-3 {        fill-rule: evenodd;      }    </style></defs><g><g id="Layer_1"><rect class="cls-1" x="170.48" y="191.26" width="699.46" height="696.76"></rect><polygon class="cls-2" points="168.77 888.9 168.77 893.94 875.85 893.94 875.85 186.58 163.68 186.58 163.68 893.94 168.77 893.94 168.77 888.9 173.81 888.9 173.81 196.64 865.76 196.64 865.76 883.88 168.77 883.88 168.77 888.9 173.81 888.9 168.77 888.9"></polygon><polygon class="cls-3" points="518.71 219.51 196.6 219.51 196.6 861.03 518.71 861.03 840.74 861.03 840.74 219.51 518.71 219.51"></polygon><path class="cls-1" d="M662.86,619.06c-29.47-12.13-64.49-20.73-102.65-24.59l-11.32-187.92-6.92,186.52c-5.35-.35-11.04-.62-16.55-.76l-7.96-251.55-10.25,251.51c-5.33.09-10.47.31-15.72.47l-11.25-186.19-6.79,187.49c-60.37,5.52-113.09,22.8-148.95,47.24,48.8-22.18,115.64-35.82,189.14-35.82h1.06c7.91,0,15.68.16,23.39.49,67.02,2.8,127.18,17.07,171.3,38.46-13.19-9.54-28.87-18.09-46.53-25.36"></path><path class="cls-1" d="M351.48,682.32c-7.37-3.32-17.08-5-29.9-5h-18.26v114.84h18.73v-46.02h5.3c10.8,0,20.91-2.25,28.56-7.79,3.78-2.8,6.89-6.42,9.05-10.89,2.22-4.43,3.38-9.76,3.38-15.84,0-5.26-.64-10.07-2.32-14.38-2.53-6.42-7.3-11.63-14.56-14.92M350.5,711.29c0,4-.88,6.97-2.23,9.23-2.04,3.34-5.4,5.4-9.8,6.7-4.29,1.28-9.47,1.66-14.57,1.66h-1.85v-34.26h1.12c6.6-.05,13.82.52,18.92,2.89,2.63,1.21,4.66,2.77,6.04,4.98,1.4,2.12,2.37,4.92,2.37,8.79"></path><path class="cls-1" d="M436.26,743.62c6.8-1.66,12.49-5.33,16.7-10.28,5-5.97,7.81-13.79,7.81-22.17,0-11.32-5.61-22.45-15.64-28.38l-.03-.05c-9.5-5.36-20.47-5.4-30.22-5.42h-19.09v114.84h18.69v-46.44h1.8l32.36,46.44h22.86l-2.86-3.95-32.38-44.59ZM440.7,720.95c-1.99,3.36-5.38,5.42-9.66,6.7-4.41,1.3-9.55,1.68-14.67,1.68h-1.89v-34.7h1.08c6.63-.04,13.83.62,18.93,3.13,2.55,1.21,4.68,2.84,6.11,5.02,1.49,2.2,2.32,5.07,2.37,8.95,0,4.03-.88,6.94-2.27,9.22"></path><polygon class="cls-1" points="494.77 792.16 513.5 792.16 513.5 789.6 513.5 677.32 494.77 677.32 494.77 792.16"></polygon><path class="cls-1" d="M618.4,691.37c-11.79-9.49-27.72-14.05-45-14.05h-25.19v114.85h24.73c17.81,0,33.85-4.66,45.61-14.31,11.8-9.66,19.02-24.36,19.02-43.66s-7.41-33.42-19.16-42.82M618.77,734.71c0,7.7-1.39,13.93-3.93,19-3.75,7.58-10,12.77-17.9,16.08-7.86,3.39-17.44,4.84-27.76,4.84h-2.29v-79.75h2.29c13.7,0,26.2,2.59,35.13,8.75,4.43,3.08,8.01,7,10.54,12.14,2.54,5.04,3.93,11.28,3.93,18.94"></path><polygon class="cls-1" points="730.58 694.88 730.58 677.34 666.56 677.34 666.56 679.85 666.56 792.15 730.58 792.15 730.58 774.6 685.3 774.6 685.3 738.14 729.23 738.14 729.23 720.59 685.3 720.59 685.3 694.88 730.58 694.88"></polygon><path class="cls-2" d="M899.6,219.51c-9.24,0-16.73-7.49-16.73-16.72s7.48-16.73,16.73-16.73,16.73,7.48,16.73,16.73-7.48,16.72-16.73,16.72M899.6,188.5c-7.76,0-14.05,6.42-14.05,14.28s6.28,14.28,14.05,14.28,14.09-6.42,14.09-14.28-6.33-14.28-14.09-14.28M903.66,211.93l-4.21-7.48h-2.77v7.48h-2.54v-18.34h6.24c3.19,0,5.78,2.4,5.78,5.5,0,2.68-1.66,4.34-3.93,5.04l4.39,7.81h-2.96ZM900.11,195.85h-3.42v6.42h3.42c2.03,0,3.46-1.34,3.46-3.19s-1.43-3.23-3.46-3.23"></path></g></g></svg>