<?xml version="1.0" encoding="utf-8"?>
<!-- Generator: Adobe Illustrator 13.0.0, SVG Export Plug-In  -->
<!DOCTYPE svg PUBLIC "-//W3C//DTD SVG 1.1//EN" "http://www.w3.org/Graphics/SVG/1.1/DTD/svg11.dtd" [
	<!ENTITY ns_flows "http://ns.adobe.com/Flows/1.0/">
]>
<svg version="1.1"
	 xmlns="http://www.w3.org/2000/svg" xmlns:xlink="http://www.w3.org/1999/xlink" xmlns:a="http://ns.adobe.com/AdobeSVGViewerExtensions/3.0/"
	 x="0px" y="0px" width="222px" height="76px" viewBox="311 259.28 222 76" enable-background="new 311 259.28 222 76"
	 xml:space="preserve">
<defs>
</defs>
<rect x="311.268" y="329.482" fill="#6E6169" width="1.01" height="5.563"/>
<g>
	<defs>
		<rect id="SVGID_1_" width="841.89" height="595.28"/>
	</defs>
	<clipPath id="SVGID_2_">
		<use xlink:href="#SVGID_1_"  overflow="visible"/>
	</clipPath>
	<path clip-path="url(#SVGID_2_)" fill="#6E6169" d="M315.039,329.484h1.008l2.108,3.212c0.213,0.321,0.462,0.862,0.462,0.862h0.014
		c0,0-0.053-0.535-0.053-0.862v-3.212h1.001v5.562h-1.001l-2.107-3.202c-0.211-0.321-0.463-0.864-0.463-0.864h-0.014
		c0,0,0.053,0.534,0.053,0.864v3.202h-1.008V329.484z"/>
	<polygon clip-path="url(#SVGID_2_)" fill="#6E6169" points="321.673,329.482 321.673,330.354 323.496,330.354 323.496,335.046 
		324.51,335.046 324.51,330.354 326.333,330.354 326.333,329.482 	"/>
	<polygon clip-path="url(#SVGID_2_)" fill="#6E6169" points="328.422,329.482 328.422,335.046 331.876,335.046 331.876,334.179 
		329.43,334.179 329.43,332.68 331.302,332.68 331.302,331.81 329.43,331.81 329.43,330.354 331.748,330.354 331.748,329.482 	"/>
	<polygon clip-path="url(#SVGID_2_)" fill="#6E6169" points="334.278,329.482 334.278,335.046 337.691,335.046 337.691,334.179 
		335.287,334.179 335.287,329.482 	"/>
	<polygon clip-path="url(#SVGID_2_)" fill="#6E6169" points="339.851,329.482 339.851,335.046 343.265,335.046 343.265,334.179 
		340.858,334.179 340.858,329.482 	"/>
	<rect x="345.424" y="329.482" clip-path="url(#SVGID_2_)" fill="#6E6169" width="1.01" height="5.563"/>
	<path clip-path="url(#SVGID_2_)" fill="#6E6169" d="M351.686,329.391c1.363,0,2.069,0.706,2.069,0.706l-0.501,0.751
		c0,0-0.596-0.533-1.482-0.533c-1.246,0-1.913,0.862-1.913,1.91c0,1.208,0.824,1.992,1.867,1.992c0.836,0,1.394-0.58,1.394-0.58
		v-0.651h-0.852v-0.869h1.763v2.93h-0.864v-0.266c0-0.117,0.009-0.234,0.009-0.234h-0.015c0,0-0.581,0.593-1.616,0.593
		c-1.463,0-2.724-1.133-2.724-2.88C348.82,330.644,350.032,329.391,351.686,329.391"/>
	<polygon clip-path="url(#SVGID_2_)" fill="#6E6169" points="356.503,329.482 356.503,335.046 359.958,335.046 359.958,334.179 
		357.511,334.179 357.511,332.68 359.384,332.68 359.384,331.81 357.511,331.81 357.511,330.354 359.831,330.354 359.831,329.482 	
		"/>
	<path clip-path="url(#SVGID_2_)" fill="#6E6169" d="M362.358,329.484h1.008l2.11,3.212c0.211,0.321,0.462,0.862,0.462,0.862h0.016
		c0,0-0.055-0.535-0.055-0.862v-3.212h1.004v5.562h-1.004l-2.108-3.202c-0.213-0.321-0.462-0.864-0.462-0.864h-0.015
		c0,0,0.052,0.534,0.052,0.864v3.202h-1.008V329.484z"/>
	<polygon clip-path="url(#SVGID_2_)" fill="#6E6169" points="368.989,329.482 368.989,330.354 370.814,330.354 370.814,335.046 
		371.824,335.046 371.824,330.354 373.65,330.354 373.65,329.482 	"/>
	<path clip-path="url(#SVGID_2_)" fill="#6E6169" d="M380.834,334.18c1.126,0,1.847-0.669,1.847-1.92
		c0-1.24-0.735-1.905-1.847-1.905h-0.831v3.825H380.834z M378.994,329.484h1.894c1.717,0,2.837,1.02,2.837,2.775
		c0,1.753-1.12,2.786-2.837,2.786h-1.894V329.484z"/>
	<polygon clip-path="url(#SVGID_2_)" fill="#6E6169" points="386.134,329.482 386.134,335.046 389.588,335.046 389.588,334.179 
		387.144,334.179 387.144,332.68 389.018,332.68 389.018,331.81 387.144,331.81 387.144,330.354 389.464,330.354 389.464,329.482 	
		"/>
	<path clip-path="url(#SVGID_2_)" fill="#6E6169" d="M392.117,333.621c0,0,0.602,0.59,1.387,0.59c0.422,0,0.807-0.222,0.807-0.675
		c0-0.995-2.624-0.826-2.624-2.531c0-0.925,0.798-1.613,1.862-1.613c1.098,0,1.662,0.594,1.662,0.594l-0.438,0.823
		c0,0-0.534-0.486-1.231-0.486c-0.469,0-0.836,0.273-0.836,0.666c0,0.986,2.616,0.745,2.616,2.522c0,0.886-0.673,1.63-1.835,1.63
		c-1.236,0-1.917-0.759-1.917-0.759L392.117,333.621z"/>
	<rect x="397.683" y="329.482" clip-path="url(#SVGID_2_)" fill="#6E6169" width="1.01" height="5.563"/>
	<path clip-path="url(#SVGID_2_)" fill="#6E6169" d="M403.943,329.391c1.363,0,2.07,0.706,2.07,0.706l-0.502,0.751
		c0,0-0.595-0.533-1.479-0.533c-1.246,0-1.912,0.862-1.912,1.91c0,1.208,0.82,1.992,1.863,1.992c0.841,0,1.394-0.58,1.394-0.58
		v-0.651h-0.854v-0.869h1.765v2.93h-0.862v-0.266c0-0.117,0.005-0.234,0.005-0.234h-0.014c0,0-0.579,0.593-1.612,0.593
		c-1.467,0-2.727-1.133-2.727-2.88C401.078,330.644,402.291,329.391,403.943,329.391"/>
	<path clip-path="url(#SVGID_2_)" fill="#6E6169" d="M408.76,329.484h1.012l2.108,3.212c0.208,0.321,0.46,0.862,0.46,0.862h0.014
		c0,0-0.054-0.535-0.054-0.862v-3.212h1.003v5.562H412.3l-2.105-3.202c-0.216-0.321-0.465-0.864-0.465-0.864h-0.014
		c0,0,0.055,0.534,0.055,0.864v3.202h-1.012V329.484z"/>
	<rect x="415.868" y="334.05" clip-path="url(#SVGID_2_)" fill="#6E6169" width="0.996" height="0.995"/>
	<polygon clip-path="url(#SVGID_2_)" fill="#6E6169" points="422.685,329.482 422.685,335.046 426.138,335.046 426.138,334.179 
		423.694,334.179 423.694,332.68 425.566,332.68 425.566,331.81 423.694,331.81 423.694,330.354 426.011,330.354 426.011,329.482 	
		"/>
	<polygon clip-path="url(#SVGID_2_)" fill="#6E6169" points="428.537,329.482 428.537,335.046 429.549,335.046 429.549,332.797 
		431.391,332.797 431.391,331.93 429.549,331.93 429.549,330.354 431.734,330.354 431.734,329.482 	"/>
	<polygon clip-path="url(#SVGID_2_)" fill="#6E6169" points="434.033,329.482 434.033,335.046 435.044,335.046 435.044,332.797 
		436.886,332.797 436.886,331.93 435.044,331.93 435.044,330.354 437.231,330.354 437.231,329.482 	"/>
	<rect x="439.528" y="329.482" clip-path="url(#SVGID_2_)" fill="#6E6169" width="1.012" height="5.563"/>
	<path clip-path="url(#SVGID_2_)" fill="#6E6169" d="M445.776,329.391c1.354,0,2.052,0.76,2.052,0.76l-0.486,0.751
		c0,0-0.634-0.587-1.52-0.587c-1.175,0-1.864,0.879-1.864,1.91c0,1.06,0.712,1.992,1.872,1.992c0.964,0,1.612-0.706,1.612-0.706
		l0.535,0.729c0,0-0.769,0.898-2.187,0.898c-1.699,0-2.875-1.259-2.875-2.897C442.916,330.628,444.14,329.391,445.776,329.391"/>
	<rect x="450.263" y="329.482" clip-path="url(#SVGID_2_)" fill="#6E6169" width="1.01" height="5.563"/>
	<polygon clip-path="url(#SVGID_2_)" fill="#6E6169" points="454.03,329.482 454.03,335.046 457.488,335.046 457.488,334.179 
		455.044,334.179 455.044,332.68 456.915,332.68 456.915,331.81 455.044,331.81 455.044,330.354 457.362,330.354 457.362,329.482 	
		"/>
	<path clip-path="url(#SVGID_2_)" fill="#6E6169" d="M459.889,329.484h1.011l2.107,3.212c0.211,0.321,0.463,0.862,0.463,0.862h0.016
		c0,0-0.058-0.535-0.058-0.862v-3.212h1.002v5.562h-1.002l-2.105-3.202c-0.212-0.321-0.461-0.864-0.461-0.864h-0.014
		c0,0,0.052,0.534,0.052,0.864v3.202h-1.011V329.484z"/>
	<polygon clip-path="url(#SVGID_2_)" fill="#6E6169" points="466.521,329.482 466.521,330.354 468.344,330.354 468.344,335.046 
		469.356,335.046 469.356,330.354 471.181,330.354 471.181,329.482 	"/>
	<polygon clip-path="url(#SVGID_2_)" fill="#6E6169" points="476.524,329.482 476.524,335.046 479.978,335.046 479.978,334.179 
		477.536,334.179 477.536,332.68 479.405,332.68 479.405,331.81 477.536,331.81 477.536,330.354 479.854,330.354 479.854,329.482 	
		"/>
	<path clip-path="url(#SVGID_2_)" fill="#6E6169" d="M483.538,332.226l-1.661-2.743h1.153l0.761,1.364
		c0.178,0.322,0.354,0.684,0.354,0.684h0.015c0,0,0.157-0.354,0.335-0.684l0.776-1.364h1.159l-1.676,2.743l1.739,2.819h-1.136
		l-0.863-1.495c-0.178-0.321-0.345-0.657-0.345-0.657h-0.014c0,0-0.156,0.336-0.345,0.657l-0.854,1.495h-1.129L483.538,332.226z"/>
	<polygon clip-path="url(#SVGID_2_)" fill="#6E6169" points="488.69,329.482 488.69,335.046 492.145,335.046 492.145,334.179 
		489.701,334.179 489.701,332.68 491.571,332.68 491.571,331.81 489.701,331.81 489.701,330.354 492.017,330.354 492.017,329.482 	
		"/>
	<path clip-path="url(#SVGID_2_)" fill="#6E6169" d="M497.636,329.391c1.558,0,2.358,0.76,2.358,0.76l-0.558,0.751
		c0,0-0.729-0.587-1.745-0.587c-1.351,0-2.144,0.879-2.144,1.91c0,1.06,0.82,1.992,2.149,1.992c1.107,0,1.855-0.706,1.855-0.706
		l0.61,0.729c0,0-0.884,0.898-2.511,0.898c-1.948,0-3.298-1.259-3.298-2.897C494.354,330.628,495.758,329.391,497.636,329.391"/>
	<path clip-path="url(#SVGID_2_)" fill="#6E6169" d="M501.432,329.484h1.01v3.564c0,0.746,0.484,1.167,1.229,1.167
		s1.238-0.421,1.238-1.176v-3.556h1.011v3.564c0,1.246-0.903,2.092-2.24,2.092c-1.348,0-2.247-0.846-2.247-2.092V329.484z"/>
	<polygon clip-path="url(#SVGID_2_)" fill="#6E6169" points="507.929,329.482 507.929,330.354 509.754,330.354 509.754,335.046 
		510.765,335.046 510.765,330.354 512.591,330.354 512.591,329.482 	"/>
	<rect x="514.68" y="329.482" clip-path="url(#SVGID_2_)" fill="#6E6169" width="1.011" height="5.563"/>
	<path clip-path="url(#SVGID_2_)" fill="#6E6169" d="M520.941,334.217c1.017,0,1.831-0.847,1.831-1.992
		c0-1.093-0.814-1.91-1.831-1.91c-1.02,0-1.834,0.817-1.834,1.91C519.107,333.37,519.922,334.217,520.941,334.217 M520.941,329.391
		c1.635,0,2.873,1.246,2.873,2.834c0,1.641-1.238,2.914-2.873,2.914c-1.638,0-2.877-1.273-2.877-2.914
		C518.064,330.637,519.304,329.391,520.941,329.391"/>
	<path clip-path="url(#SVGID_2_)" fill="#6E6169" d="M526.195,329.484h1.012l2.106,3.212c0.21,0.321,0.459,0.862,0.459,0.862h0.019
		c0,0-0.058-0.535-0.058-0.862v-3.212h1.005v5.562h-1.005l-2.105-3.202c-0.212-0.321-0.461-0.864-0.461-0.864h-0.015
		c0,0,0.055,0.534,0.055,0.864v3.202h-1.012V329.484z"/>
	<rect x="531.739" y="334.05" clip-path="url(#SVGID_2_)" fill="#6E6169" width="0.993" height="0.995"/>
	<path clip-path="url(#SVGID_2_)" fill="#B691A1" d="M512.055,272.339c1.252,5.148,1.636,10.864-3.154,13.096
		c9.911,0.433,11.608-7.71,11.324-16.146c-0.063-1.908-1.119-9.148-1.119-9.148s-6.816,2.699-8.497,3.586
		c-7.442,3.987-13.646,9.527-8.322,17.893C501.829,276.353,506.965,273.834,512.055,272.339"/>
	<path clip-path="url(#SVGID_2_)" fill="#B691A1" d="M518.096,287.876c-0.814-0.163-1.934-0.217-2.778-0.093
		c-6.591,0.981-7.339,6.919-10.491,9.77c-3.203,2.916-6.793,0.934-7.446,0.601c-0.065-0.029-0.29-0.158-0.337-0.193
		c-0.631-0.408-4.133-2.53-3.22-6.755c0.902-4.158,5.67-7.766,3.228-13.969c-0.313-0.795-0.927-1.739-1.468-2.357
		c-4.713-5.32-14.878-4.478-23.605-2.402c1.464,6.594,3.773,11.802,7.703,14.818c2.407,1.857,6.712,2.132,7.589,5.588
		c0.687,2.708-1.835,4.347-3.224,6.958c-2.584,4.862-1.902,12.562,0.432,20.252l0.008,0.007V320.1
		c7.827-1.828,14.83-5.085,17.751-9.753c1.575-2.505,1.737-5.517,4.426-6.269c3.427-0.967,5.81,2.617,8.628,3.778
		c4.583,1.892,10.237,1.284,16.693-0.741C529.404,298.515,525.051,289.297,518.096,287.876"/>
	<path clip-path="url(#SVGID_2_)" fill="#6E6169" d="M386.267,314.23h-0.803l-0.008-7.205c0-1.951-0.126-3.375-0.372-4.261
		c-0.244-0.89-0.806-1.572-1.677-2.05c-0.871-0.474-1.775-0.716-2.699-0.716c-2.284,0-4.053,1.2-5.318,3.605h-0.079v-14.18
		l-3.712,0.56v25.206h3.712v-5.085c0-2.239,0.108-3.847,0.333-4.815c0.222-0.991,0.707-1.954,1.462-2.901
		c0.751-0.943,1.676-1.42,2.795-1.42c1.014,0,1.585,0.443,1.7,1.306c0.119,0.869,0.177,2.332,0.177,4.387l0.011,6.935
		c0,0,0.023,0.635,0.414,1.074c0.437,0.484,1.137,0.521,1.137,0.521h2.926c0.267-0.004,0.48-0.215,0.48-0.479
		C386.748,314.445,386.534,314.23,386.267,314.23"/>
	<path clip-path="url(#SVGID_2_)" fill="#6E6169" d="M434.598,314.23h-0.803v-7.205c0-1.951-0.123-3.375-0.375-4.261
		c-0.242-0.89-0.804-1.572-1.677-2.05c-0.879-0.474-1.775-0.716-2.703-0.716c-2.285,0-4.052,1.2-5.319,3.605h-0.084v-14.18
		l-3.702,0.56v25.206h3.702v-5.085c0-2.239,0.125-3.847,0.345-4.815c0.208-0.991,0.706-1.954,1.458-2.901
		c0.756-0.943,1.685-1.42,2.784-1.42c1.021,0,1.593,0.443,1.705,1.306c0.113,0.869,0.177,2.332,0.177,4.387l0.015,6.935
		c0,0,0.023,0.635,0.423,1.074c0.434,0.484,1.132,0.521,1.132,0.521h2.923c0.275-0.004,0.483-0.215,0.483-0.479
		C435.081,314.445,434.873,314.23,434.598,314.23"/>
	<path clip-path="url(#SVGID_2_)" fill="#6E6169" d="M411.758,305.312c-1.728-0.231-2.81-0.503-3.276-0.827
		c-0.465-0.332-0.689-0.769-0.689-1.323c0-0.656,0.324-1.239,0.975-1.76c0.651-0.508,1.456-0.767,2.438-0.767
		c2.258,0,3.67,1.228,4.26,3.707h0.774v-4.258c-0.321-0.422-0.588,0-0.588,0c-0.264,0.498-0.519,0.867-0.776,1.139
		c-0.991-0.96-2.214-1.448-3.67-1.448c-1.373,0-2.553,0.451-3.499,1.331c-0.967,0.882-1.445,1.965-1.445,3.272
		c0,2.646,1.78,4.231,5.345,4.752c2.091,0.31,3.37,0.632,3.85,0.991c0.474,0.354,0.711,0.875,0.711,1.571
		c0,0.837-0.401,1.566-1.2,2.188c-0.798,0.627-1.679,0.924-2.657,0.924c-2.573,0-4.404-1.787-5.497-5.365h-0.666v5.604
		c0,0,0.209,0.339,0.666,0c0.345-0.285,1.336-1.142,1.336-1.142c1.347,1.178,2.728,1.77,4.161,1.77c1.452,0,2.682-0.499,3.659-1.482
		c0.975-0.987,1.476-2.229,1.476-3.703C417.446,307.506,415.548,305.78,411.758,305.312"/>
	<path clip-path="url(#SVGID_2_)" fill="#6E6169" d="M462.908,309.588c0,0.887-0.11,1.59-0.31,2.091
		c-0.206,0.515-0.603,1.01-1.211,1.509c-0.601,0.5-1.271,0.754-2.022,0.754c-0.579,0-1.095-0.244-1.543-0.699
		c-0.451-0.476-0.677-1.135-0.677-1.979c0-1.164,0.371-2.059,1.124-2.67c0.742-0.619,2.285-0.974,4.639-1.06V309.588z
		 M469.074,312.857c-0.148-0.06-0.321,0.149-0.357,0.201c-0.393,0.511-0.799,0.769-1.21,0.769c-0.313,0-0.533-0.13-0.681-0.379
		c-0.141-0.25-0.212-0.893-0.212-1.918v-7c0-1.061-0.1-1.879-0.276-2.472c-0.188-0.577-0.674-1.063-1.458-1.459
		c-0.788-0.398-2.021-0.594-3.723-0.594c-2.116,0-3.768,0.347-4.956,1.041c-1.184,0.688-1.772,1.533-1.772,2.552
		c0,0.469,0.15,0.886,0.457,1.225c0.301,0.353,0.734,0.523,1.291,0.523c0.431,0,0.812-0.134,1.159-0.404
		c0.339-0.281,0.513-0.671,0.513-1.19c0-0.367-0.093-0.682-0.258-0.96c-0.167-0.274-0.255-0.532-0.255-0.75
		c0-0.785,1.025-1.177,3.074-1.177c1.144,0,1.844,0.241,2.105,0.74c0.262,0.49,0.393,1.531,0.393,3.128v1.927
		c-6.361,0.299-9.546,2.071-9.546,5.299c0,1.045,0.392,1.92,1.179,2.64c0.783,0.719,1.834,1.072,3.153,1.072
		c1.993,0,3.729-1.015,5.214-3.042c0.335,2.027,1.387,3.042,3.148,3.042c1.685,0,2.741-0.796,3.139-2.37
		C469.234,313.166,469.287,312.955,469.074,312.857"/>
	<path clip-path="url(#SVGID_2_)" fill="#6E6169" d="M328.164,297.525c0.572,0,1.057-0.197,1.46-0.586
		c0.411-0.392,0.616-0.889,0.616-1.482c0-0.572-0.211-1.06-0.616-1.455c-0.416-0.402-0.899-0.596-1.46-0.596
		c-0.548,0-1.04,0.194-1.451,0.596c-0.41,0.407-0.614,0.895-0.614,1.455c0,0.584,0.2,1.072,0.614,1.472
		C327.11,297.328,327.596,297.525,328.164,297.525"/>
	<path clip-path="url(#SVGID_2_)" fill="#6E6169" d="M330.731,314.227h-0.815v-15.091l-3.682,0.557v13.897
		c0,0,0.015,0.637,0.408,1.08c0.439,0.485,1.145,0.521,1.145,0.521h2.943c0.257-0.006,0.473-0.214,0.473-0.479
		C331.204,314.442,330.988,314.23,330.731,314.227"/>
	<path clip-path="url(#SVGID_2_)" fill="#6E6169" d="M440.1,297.525c0.571,0,1.064-0.197,1.478-0.586
		c0.396-0.392,0.597-0.889,0.597-1.482c0-0.572-0.201-1.06-0.62-1.455c-0.415-0.402-0.896-0.596-1.454-0.596
		c-0.556,0-1.037,0.194-1.443,0.596c-0.417,0.407-0.623,0.895-0.623,1.455c0,0.584,0.206,1.072,0.606,1.472
		C439.043,297.328,439.533,297.525,440.1,297.525"/>
	<path clip-path="url(#SVGID_2_)" fill="#6E6169" d="M442.662,314.227h-0.808v-15.091l-3.687,0.557v13.897
		c0,0,0.01,0.637,0.418,1.08c0.435,0.485,1.133,0.521,1.133,0.521h2.943c0.265-0.006,0.482-0.214,0.482-0.479
		C443.145,314.442,442.927,314.23,442.662,314.227"/>
	<path clip-path="url(#SVGID_2_)" fill="#6E6169" d="M450.357,314.227h-0.759h-0.037v-0.012l0.037,0.012v-24.803l-3.725,0.554
		v23.612c0,0,0.013,0.637,0.417,1.08c0.428,0.485,1.133,0.521,1.133,0.521h2.934c0.273-0.006,0.495-0.214,0.495-0.479
		C450.853,314.442,450.631,314.23,450.357,314.227"/>
	<path clip-path="url(#SVGID_2_)" fill="#6E6169" d="M344.867,309.515c-0.056,0.654-0.137,1.191-0.262,1.612
		c-0.249,0.924-0.788,1.751-1.589,2.469c-0.812,0.723-1.748,1.087-2.813,1.087c-0.995,0-1.71-0.359-2.15-1.067
		c-0.446-0.703-0.671-2.425-0.671-5.149c0-3.154,0.178-5.252,0.526-6.281c0.346-1.025,1.213-1.555,2.593-1.555
		c1.399,0,2.492,0.508,3.288,1.52c0.559,0.699,0.917,1.636,1.078,2.805V309.515z M349.508,314.445v-0.003h-0.834v-25.025l-3.82,0.56
		v12.479h-0.078c-0.932-1.786-2.393-2.683-4.376-2.683c-1.958,0-3.653,0.817-5.104,2.439c-1.427,1.625-2.143,3.514-2.143,5.659
		c0,2.014,0.674,3.819,2.045,5.407c1.352,1.595,2.929,2.384,4.714,2.384c2.231,0,3.85-1.11,4.864-3.365h0.078l0.013,0.014v1.47
		c0,0,0.024,0.663,0.433,1.116c0.455,0.496,1.178,0.544,1.178,0.544h3.031v-0.006c0.278,0,0.495-0.224,0.495-0.498
		C350.003,314.669,349.786,314.445,349.508,314.445"/>
	<path clip-path="url(#SVGID_2_)" fill="#6E6169" d="M363.416,309.515c-0.062,0.654-0.15,1.191-0.263,1.612
		c-0.252,0.924-0.788,1.751-1.596,2.469c-0.813,0.723-1.754,1.087-2.82,1.087c-0.982,0-1.695-0.359-2.141-1.067
		c-0.449-0.703-0.668-2.425-0.668-5.149c0-3.154,0.174-5.252,0.526-6.281c0.345-1.025,1.217-1.555,2.595-1.555
		c1.385,0,2.487,0.508,3.29,1.52c0.556,0.699,0.908,1.636,1.077,2.805V309.515z M368.05,314.445v-0.003h-0.833v-25.025l-3.821,0.56
		v12.479h-0.075c-0.936-1.786-2.4-2.683-4.386-2.683c-1.951,0-3.646,0.817-5.084,2.439c-1.441,1.625-2.164,3.514-2.164,5.659
		c0,2.014,0.676,3.819,2.048,5.407c1.362,1.595,2.932,2.384,4.717,2.384c2.236,0,3.857-1.11,4.869-3.365h0.075l0.021,0.014v1.47
		c0,0,0.021,0.663,0.43,1.116c0.447,0.496,1.176,0.544,1.176,0.544h3.028v-0.006c0.269,0,0.49-0.224,0.49-0.498
		C368.54,314.669,368.319,314.445,368.05,314.445"/>
	<path clip-path="url(#SVGID_2_)" fill="#6E6169" d="M397.827,309.588c0,0.887-0.104,1.59-0.303,2.091
		c-0.209,0.515-0.612,1.01-1.214,1.509c-0.6,0.5-1.275,0.754-2.019,0.754c-0.591,0-1.103-0.244-1.549-0.699
		c-0.454-0.476-0.676-1.135-0.676-1.979c0-1.164,0.368-2.059,1.122-2.67c0.75-0.619,2.295-0.974,4.64-1.06V309.588z
		 M403.993,312.857c-0.141-0.06-0.315,0.149-0.362,0.201c-0.388,0.511-0.793,0.769-1.208,0.769c-0.305,0-0.528-0.13-0.677-0.379
		c-0.14-0.25-0.209-0.893-0.209-1.918v-7c0-1.061-0.096-1.879-0.279-2.472c-0.185-0.577-0.67-1.063-1.449-1.459
		c-0.796-0.398-2.032-0.594-3.731-0.594c-2.117,0-3.765,0.347-4.948,1.041c-1.184,0.688-1.78,1.533-1.78,2.552
		c0,0.469,0.149,0.886,0.453,1.225c0.304,0.353,0.738,0.523,1.292,0.523c0.44,0,0.822-0.134,1.161-0.404
		c0.341-0.281,0.518-0.671,0.518-1.19c0-0.367-0.088-0.682-0.26-0.96c-0.168-0.274-0.258-0.532-0.258-0.75
		c0-0.785,1.026-1.177,3.083-1.177c1.136,0,1.838,0.241,2.099,0.74c0.259,0.49,0.392,1.531,0.392,3.128v1.927
		c-6.365,0.299-9.541,2.071-9.541,5.299c0,1.045,0.385,1.92,1.174,2.64c0.781,0.719,1.837,1.072,3.159,1.072
		c1.99,0,3.727-1.015,5.208-3.042c0.336,2.027,1.392,3.042,3.152,3.042c1.684,0,2.739-0.796,3.143-2.37
		C404.162,313.166,404.208,312.955,403.993,312.857"/>
	<path clip-path="url(#SVGID_2_)" fill="#6E6169" d="M316.875,305.312c-1.724-0.231-2.821-0.503-3.282-0.827
		c-0.464-0.332-0.689-0.769-0.689-1.323c0-0.656,0.323-1.239,0.984-1.76c0.644-0.508,1.455-0.767,2.439-0.767
		c2.253,0,3.676,1.228,4.251,3.707h0.779v-4.258c-0.321-0.422-0.584,0-0.584,0c-0.27,0.498-0.527,0.867-0.776,1.139
		c-0.996-0.96-2.214-1.448-3.67-1.448c-1.382,0-2.549,0.451-3.511,1.331c-0.958,0.882-1.432,1.965-1.432,3.272
		c0,2.646,1.775,4.231,5.34,4.752c2.087,0.31,3.372,0.632,3.855,0.991c0.469,0.354,0.701,0.875,0.701,1.571
		c0,0.837-0.388,1.566-1.192,2.188c-0.803,0.627-1.688,0.924-2.656,0.924c-2.574,0-4.404-1.787-5.497-5.365h-0.667v5.604
		c0,0,0.199,0.339,0.667,0c0.335-0.285,1.337-1.142,1.337-1.142c1.338,1.178,2.725,1.77,4.159,1.77c1.458,0,2.67-0.499,3.652-1.482
		c0.984-0.987,1.481-2.229,1.481-3.703C322.564,307.506,320.668,305.78,316.875,305.312"/>
	<path clip-path="url(#SVGID_2_)" fill="#B691A1" d="M531.065,271.98c-0.582-0.574-1.392-0.944-2.275-0.944
		c-0.895,0-1.696,0.37-2.289,0.944c-0.584,0.589-0.94,1.394-0.94,2.286c0,0.902,0.356,1.707,0.94,2.281
		c0.579,0.584,1.389,0.943,2.289,0.943c0.884,0,1.693-0.358,2.275-0.943c0.582-0.574,0.945-1.378,0.945-2.281
		C532.011,273.375,531.647,272.569,531.065,271.98 M528.79,270.766c0.958,0,1.843,0.389,2.479,1.03
		c0.631,0.625,1.029,1.512,1.029,2.47c0,0.974-0.398,1.851-1.029,2.491c-0.636,0.631-1.521,1.016-2.479,1.016
		c-0.977,0-1.847-0.385-2.493-1.016c-0.631-0.646-1.02-1.517-1.02-2.491c0-0.958,0.389-1.845,1.02-2.47
		C526.93,271.155,527.813,270.766,528.79,270.766"/>
	<path clip-path="url(#SVGID_2_)" fill="#B691A1" d="M527.167,276.293v-4.049h1.795c0.361,0,0.637,0.036,0.823,0.109
		c0.188,0.073,0.338,0.201,0.45,0.386c0.112,0.184,0.169,0.387,0.169,0.61c0,0.287-0.094,0.529-0.278,0.727
		c-0.188,0.197-0.474,0.322-0.862,0.375c0.142,0.068,0.249,0.136,0.322,0.202c0.157,0.144,0.306,0.322,0.445,0.538l0.704,1.102
		h-0.674l-0.535-0.843c-0.158-0.243-0.287-0.429-0.388-0.558c-0.102-0.129-0.191-0.219-0.271-0.271
		c-0.08-0.052-0.161-0.087-0.245-0.108c-0.061-0.013-0.16-0.02-0.297-0.02h-0.622v1.798H527.167z M527.703,274.031h1.151
		c0.245,0,0.437-0.025,0.574-0.076c0.139-0.051,0.243-0.132,0.315-0.243c0.071-0.111,0.107-0.232,0.107-0.363
		c0-0.191-0.069-0.349-0.208-0.472c-0.14-0.123-0.359-0.185-0.659-0.185h-1.281V274.031z"/>
</g>
</svg>
